<svg width="24" height="30" viewBox="0 0 24 30" fill="none" xmlns="http://www.w3.org/2000/svg">
<path d="M15.1674 29L8.83263 29C4.69357 29 1.45832 25.428 1.86681 21.3092L2.81939 11.7039C2.97159 10.1693 4.26255 9 5.80475 9L18.1953 9C19.7374 9 21.0284 10.1693 21.1806 11.7039L22.1332 21.3092C22.5417 25.428 19.3064 29 15.1674 29Z" stroke="#E2E2E2" stroke-width="2"/>
<line x1="8" y1="16" x2="16" y2="16" stroke="#E2E2E2" stroke-width="2" stroke-linecap="round" stroke-linejoin="round"/>
<line x1="8" y1="20" x2="16" y2="20" stroke="#E2E2E2" stroke-width="2" stroke-linecap="round" stroke-linejoin="round"/>
<path fill-rule="evenodd" clip-rule="evenodd" d="M15.8597 8.3368C15.9505 7.92007 16 7.47347 16 7C16 3.93823 13.931 2 12 2C10.069 2 8 3.93823 8 7C8 7.47347 8.04948 7.92007 8.14027 8.33679C7.45012 8.54249 6.82223 8.80164 6.27573 9.1039C6.09659 8.43984 6 7.73308 6 7C6 3.13401 8.68629 0 12 0C15.3137 0 18 3.13401 18 7C18 7.73308 17.9034 8.43985 17.7243 9.10391C17.1778 8.80164 16.5499 8.54249 15.8597 8.3368Z" fill="#E2E2E2"/>
</svg>
