<svg width="214" height="239" viewBox="0 0 214 239" fill="none" xmlns="http://www.w3.org/2000/svg">
<path d="M0 119.568C0 163.728 47.234 199.527 105.5 199.527C163.766 199.527 211 163.728 211 119.568C211 75.407 195.241 32.5273 136.975 32.5273C47.7956 97.8959 0 75.407 0 119.568Z" fill="#E2F7FE"/>
<path d="M15.3994 72.2723C20.0859 82.0654 40.9423 74.9004 65.9982 62.91C91.0542 50.9195 107.567 33.2605 102.88 23.4674C98.194 13.6744 68.3526 11.477 43.2967 23.4674C18.2408 35.4579 10.713 62.4793 15.3994 72.2723Z" fill="#E2F7FE"/>
<path d="M173.742 199.623C170.709 196.242 176.822 189.333 185.473 181.575C194.124 173.817 203.596 170.268 206.628 173.65C209.66 177.031 205.723 188.913 197.072 196.671C188.421 204.429 176.774 203.004 173.742 199.623Z" fill="#E2F7FE"/>
<g filter="url(#filter0_d_101_914)">
<path d="M62.6754 80.5744L67.0929 78.8565L75.0688 107.202L71.1422 106.834L62.6754 80.5744Z" fill="#C4C4C4"/>
<path d="M55.6812 139.228C54.4051 136.185 67.3383 123.89 73.9645 118.123C78.0956 120.127 86.2106 125.092 85.6216 128.921C84.8853 133.706 64.7615 150.394 61.9392 148.922C59.132 147.457 57.296 143.079 55.7067 139.289L55.6812 139.228Z" fill="#FDB899"/>
<path d="M58.3807 106.097L52 84.501L65.9885 79.3473L73.9644 107.079L58.3807 106.097Z" fill="#756C6C"/>
<path d="M79.991 219.05L87.4312 184.131L139.81 180.55L152.905 223.527L79.991 219.05Z" fill="#D5CFCF"/>
<path d="M86.0111 97.2644C90.7731 89.2038 102.678 78.1994 107.738 77.4091C113.929 76.935 110.913 102.697 108.631 115.638L101.488 110.896C96.8249 118.601 87.2016 134.071 86.0111 134.308C84.5229 134.604 69.6415 115.342 69.0463 114.749C68.451 114.156 80.0585 107.34 86.0111 97.2644Z" fill="#67A7FE"/>
<path d="M129.786 62.2864L135.121 61.3972V63.7683L130.972 64.3611L129.786 62.2864Z" fill="#385138"/>
<path d="M131.971 194.389C122.462 203.904 98.2958 193.992 87.401 187.847L107.309 108.459C108.497 77.774 121.472 76.0495 127.811 79.0228C129.813 91.9353 132.232 110.015 133.976 128.083C136.89 158.277 137.919 188.436 131.971 194.389Z" fill="#F8F5F5"/>
<path d="M83.2806 169.434C95.157 156.374 106.044 101.663 110.003 75.9405C123.067 63.7716 102.877 160.826 100.204 171.511C97.5323 182.196 74.6702 210.096 76.1547 205.347C77.3424 201.548 68.9335 194.446 66.3567 186.648C67.0495 186.351 71.4041 182.493 83.2806 169.434Z" fill="#79B1FE"/>
<path d="M135.24 61.3972L139.99 67.63L156.024 74.4565C163.446 72.9725 183.043 107.995 184.824 112.447C186.605 116.899 161.962 128.771 164.04 126.991C165.703 125.566 159.389 116.701 156.024 112.447L150.976 124.913C142.188 149.132 154.638 180.514 161.962 193.178C155.727 200.796 141 213.657 131.974 204.159C122.948 194.662 118.316 163.003 117.128 148.36C115.05 138.566 122.247 81.0054 124.029 79.2246C125.454 77.7999 132.073 66.7396 135.24 61.3972Z" fill="#79B1FE"/>
<path d="M106.371 74.7351L113.484 69.6963L116.152 76.2171L111.706 78.8847L106.371 85.7019V74.7351Z" fill="#5989DB"/>
<path d="M113.78 81.1257C114.255 75.8842 110.026 63.2572 107.853 57.5989L122.672 45.9844L136.307 67.4265L132.039 82.2923L116.626 85.8659C115.539 86.263 113.306 86.3671 113.78 81.1257Z" fill="#F5A480"/>
<path d="M100.455 64.7662C96.4183 63.8168 92.8368 45.7773 91.5506 36.8763C93.1336 34.3048 97.2494 28.5093 101.049 25.8983C105.798 22.6346 126.575 32.4257 129.84 33.9092C132.452 35.096 129.939 45.085 128.356 49.9311C124.794 52.3047 117.492 57.4674 116.78 59.1289C115.889 61.2058 105.501 65.953 100.455 64.7662Z" fill="#F6AD8C"/>
<path d="M97.1821 44.0578L96.2918 35.5231C95.4027 36.7146 89.1788 46.5447 87.9932 45.651C87.0448 44.9361 88.3884 37.0125 89.1788 33.1401L80.732 35.5231C82.6586 32.2465 85.0595 29.089 85.7708 28.374C86.6599 27.4804 89.1788 25.3953 85.7708 23.7545C83.3635 22.5955 81.967 18.6238 82.6586 17.2337C86.2151 19.3189 96.2918 12.8844 104.294 10.2034C112.296 7.52253 120.595 13.4801 124.744 16.4589C128.063 18.8419 127.708 23.4094 127.115 25.3953C128.893 24.7995 130.968 24.5016 133.635 28.374C136.023 31.8404 130.671 46.0482 127.708 53.098L122.077 49.8213C128.241 47.9149 127.708 43.465 127.115 40.5871C123.558 33.6763 117.634 37.2406 115.556 40.5871C112.743 38.1298 107.08 31.5316 107.554 32.2465C108.028 32.9614 100.739 39.1672 97.1821 44.0578Z" fill="#462E32"/>
<path d="M126.822 77.1063L135.121 61.9899L139.271 67.0287L137.281 77.384L135.808 87.0778L132.373 83.0285L122.802 84.3783L126.822 77.1063Z" fill="#5989DB"/>
<path d="M172.498 127.868C172.498 126.518 168.857 124.023 167.958 121.61C169.348 117.193 176.056 109.094 180.842 113.757C187.733 120.471 192.008 125.537 191.517 127.868C191.29 128.949 162.436 160.14 161.577 160.508C160.89 160.803 160.227 163.739 159.982 165.171C160.865 167.625 162.968 174.292 163.908 177.319C163.172 183.7 159.982 187.872 157.65 188.608C155.319 189.344 154.337 186.522 153.724 185.54C153.11 184.559 153.601 179.528 153.724 176.705C153.846 173.883 151.638 170.447 151.392 170.938C151.147 171.429 151.147 176.705 150.533 177.319C149.92 177.932 148.938 177.319 148.447 176.705C147.956 176.092 147.097 172.288 147.097 166.521C147.097 160.753 155.319 153.759 159.982 145.17C164.644 136.58 172.498 129.573 172.498 127.868Z" fill="#F6AD8C"/>
<path d="M164.276 126.589C164.669 125.706 162.477 121.476 161.331 119.472C167.058 115.423 179.124 107.496 181.578 108.183C184.646 109.042 184.646 112.355 184.646 112.846C184.646 113.337 183.787 115.3 183.05 116.282C182.314 117.264 163.786 127.694 164.276 126.589Z" fill="#79B1FE"/>
<path d="M73.719 133.461C74.7989 136.7 70.815 143.236 68.6881 146.1C67.052 147.408 63.289 150.124 61.3257 150.517C58.8716 151.008 55.8039 143.645 54.945 140.332C54.2578 137.682 56.5402 121.395 57.7672 113.582C56.8674 111.374 55.0431 106.858 54.945 106.465C54.8223 105.975 52.1227 102.784 57.7672 96.7716C63.4117 90.759 69.547 94.4402 70.2833 95.4218C71.0195 96.4035 72.3693 104.011 72.492 106.465C72.6147 108.92 66.9702 114.319 66.1113 115.3C65.2523 116.282 72.3693 129.412 73.719 133.461Z" fill="#F6AD8C"/>
<path d="M61.3257 117.141C61.3257 114.687 67.6246 111.292 70.7741 109.901C68.7699 111.455 65.0314 114.859 66.1112 116.037C67.461 117.509 76.5413 134.688 73.5963 141.437C72.1167 144.828 62.43 150.885 62.43 149.903C62.43 148.922 61.3257 120.209 61.3257 117.141Z" fill="#F89B71"/>
<path d="M181.823 126.467C184.277 123.62 181.455 120.454 179.001 118.981L169.675 124.135L172.62 127.939L160.35 144.504L155.073 153.707C162.967 145.813 179.369 129.313 181.823 126.467Z" fill="#FCA47C"/>
<path d="M107.954 34.8049L112.126 37.259L109.672 34.5595L107.709 32.3507L102.923 37.6271L107.954 34.8049Z" fill="#F89B71"/>
<path d="M115.412 205.367L109.304 220.828H117.157L115.412 205.367Z" fill="#BFBABA"/>
<rect x="57.7672" y="86.6008" width="3.62145" height="5.53868" rx="1.81072" transform="rotate(-15.9557 57.7672 86.6008)" fill="#C4C4C4"/>
<rect x="59.1394" y="87.2191" width="1.40667" height="2.15028" rx="0.703337" transform="rotate(-15.9557 59.1394 87.2191)" fill="#797777"/>
<circle cx="122.433" cy="42.7808" r="2.33142" fill="#EC946D"/>
<path d="M115.439 147.449L106.359 143.523L103.905 154.689L111.513 164.506L115.439 147.449Z" fill="#EDE9E9"/>
<path d="M121.443 179.558L116.421 183.034L118.261 192.728L124.642 192.728L121.443 179.558Z" fill="#EDE9E9"/>
<path d="M115.194 85.8507C115.692 85.9786 119.256 85.3145 121.206 84.8691L122.188 84.6237L122.679 84.8691L114.089 91.0044L114.335 85.2372C114.418 85.4154 114.774 85.7431 115.194 85.8507Z" fill="#EDE9E9"/>
<path d="M91.1433 188.423L95.5717 184.261L96.2043 185.787H98.2603V190.642L91.1433 188.423Z" fill="#EDE9E9"/>
<path d="M84.7626 196.409L86.9713 193.71L87.7076 195.673L83.9037 201.44L84.7626 196.409Z" fill="#B4AFAF"/>
<path d="M153.969 154.198C154.035 154.532 158.679 157.431 160.718 158.616C160.229 160.156 158.944 162.967 158.744 162.833C158.495 162.666 155.872 161.452 154.915 160.992C153.957 160.531 151.545 158.193 151.38 157.359C151.215 156.525 153.887 153.781 153.969 154.198Z" fill="#C4C4C4"/>
<ellipse cx="161.417" cy="161.455" rx="2.94198" ry="4.15838" transform="rotate(25.7043 161.417 161.455)" fill="#726868"/>
<ellipse cx="161.526" cy="161.602" rx="2.17467" ry="3.2204" transform="rotate(25.7043 161.526 161.602)" fill="#4D4646"/>
<path d="M137.404 208.312C137.404 208.901 144.602 208.557 148.202 208.312L147.343 205.49L144.889 206.594L142.435 207.33C140.758 207.371 137.404 207.723 137.404 208.312Z" fill="#AEA9A9"/>
</g>
<defs>
<filter id="filter0_d_101_914" x="50" y="9.52734" width="153.555" height="229" filterUnits="userSpaceOnUse" color-interpolation-filters="sRGB">
<feFlood flood-opacity="0" result="BackgroundImageFix"/>
<feColorMatrix in="SourceAlpha" type="matrix" values="0 0 0 0 0 0 0 0 0 0 0 0 0 0 0 0 0 0 127 0" result="hardAlpha"/>
<feOffset dx="5" dy="8"/>
<feGaussianBlur stdDeviation="3.5"/>
<feColorMatrix type="matrix" values="0 0 0 0 0.0831274 0 0 0 0 0.0958333 0 0 0 0 0.0786632 0 0 0 0.25 0"/>
<feBlend mode="normal" in2="BackgroundImageFix" result="effect1_dropShadow_101_914"/>
<feBlend mode="normal" in="SourceGraphic" in2="effect1_dropShadow_101_914" result="shape"/>
</filter>
</defs>
</svg>
