<svg width="261" height="52" viewBox="0 0 261 52" fill="none" xmlns="http://www.w3.org/2000/svg">
<rect x="12" y="9" width="33" height="33" fill="black" stroke="white" stroke-width="2"/>
<rect x="1" y="27" width="24" height="24" fill="black" stroke="white" stroke-width="2"/>
<path d="M64.626 12.696V35H61.714V12.696H64.626ZM68.501 23.832C68.501 21.656 68.9917 19.704 69.973 17.976C70.9543 16.2267 72.2877 14.8613 73.973 13.88C75.6797 12.8987 77.5677 12.408 79.637 12.408C82.069 12.408 84.1917 12.9947 86.005 14.168C87.8183 15.3413 89.141 17.0053 89.973 19.16H86.485C85.8663 17.816 84.9703 16.7813 83.797 16.056C82.645 15.3307 81.2583 14.968 79.637 14.968C78.0797 14.968 76.6823 15.3307 75.445 16.056C74.2077 16.7813 73.237 17.816 72.533 19.16C71.829 20.4827 71.477 22.04 71.477 23.832C71.477 25.6027 71.829 27.16 72.533 28.504C73.237 29.8267 74.2077 30.8507 75.445 31.576C76.6823 32.3013 78.0797 32.664 79.637 32.664C81.2583 32.664 82.645 32.312 83.797 31.608C84.9703 30.8827 85.8663 29.848 86.485 28.504H89.973C89.141 30.6373 87.8183 32.2907 86.005 33.464C84.1917 34.616 82.069 35.192 79.637 35.192C77.5677 35.192 75.6797 34.712 73.973 33.752C72.2877 32.7707 70.9543 31.416 69.973 29.688C68.9917 27.96 68.501 26.008 68.501 23.832ZM107.492 30.04H97.7638L95.9718 35H92.8997L100.964 12.824H104.324L112.356 35H109.284L107.492 30.04ZM106.66 27.672L102.628 16.408L98.5958 27.672H106.66Z" fill="#4E4949"/>
<path d="M123.122 23.832C123.122 21.656 123.623 19.704 124.626 17.976C125.65 16.248 127.026 14.904 128.754 13.944C130.503 12.9627 132.412 12.472 134.482 12.472C136.85 12.472 138.951 13.0587 140.786 14.232C142.642 15.384 143.986 17.0267 144.818 19.16H140.434C139.858 17.9867 139.058 17.112 138.034 16.536C137.01 15.96 135.826 15.672 134.482 15.672C133.01 15.672 131.698 16.0027 130.546 16.664C129.394 17.3253 128.487 18.2747 127.826 19.512C127.186 20.7493 126.866 22.1893 126.866 23.832C126.866 25.4747 127.186 26.9147 127.826 28.152C128.487 29.3893 129.394 30.3493 130.546 31.032C131.698 31.6933 133.01 32.024 134.482 32.024C135.826 32.024 137.01 31.736 138.034 31.16C139.058 30.584 139.858 29.7093 140.434 28.536H144.818C143.986 30.6693 142.642 32.312 140.786 33.464C138.951 34.616 136.85 35.192 134.482 35.192C132.391 35.192 130.482 34.712 128.754 33.752C127.026 32.7707 125.65 31.416 124.626 29.688C123.623 27.96 123.122 26.008 123.122 23.832ZM160.64 35L155.52 26.104H152.736V35H149.088V12.76H156.768C158.474 12.76 159.914 13.0587 161.088 13.656C162.282 14.2533 163.168 15.0533 163.744 16.056C164.341 17.0587 164.64 18.1787 164.64 19.416C164.64 20.8667 164.213 22.1893 163.36 23.384C162.528 24.5573 161.237 25.3573 159.488 25.784L164.992 35H160.64ZM152.736 23.192H156.768C158.133 23.192 159.157 22.8507 159.84 22.168C160.544 21.4853 160.896 20.568 160.896 19.416C160.896 18.264 160.554 17.368 159.872 16.728C159.189 16.0667 158.154 15.736 156.768 15.736H152.736V23.192ZM182.714 30.456H173.402L171.802 35H167.994L175.962 12.728H180.186L188.154 35H184.314L182.714 30.456ZM181.69 27.48L178.074 17.144L174.426 27.48H181.69ZM204.707 12.76V15.736H195.267V22.296H202.627V25.272H195.267V35H191.619V12.76H204.707ZM222.456 12.76V15.736H216.536V35H212.888V15.736H206.936V12.76H222.456ZM229.798 15.704V22.232H237.478V25.208H229.798V32.024H238.438V35H226.15V12.728H238.438V15.704H229.798ZM254.483 35L249.363 26.104H246.579V35H242.931V12.76H250.611C252.318 12.76 253.758 13.0587 254.931 13.656C256.126 14.2533 257.011 15.0533 257.587 16.056C258.185 17.0587 258.483 18.1787 258.483 19.416C258.483 20.8667 258.057 22.1893 257.203 23.384C256.371 24.5573 255.081 25.3573 253.331 25.784L258.835 35H254.483ZM246.579 23.192H250.611C251.977 23.192 253.001 22.8507 253.683 22.168C254.387 21.4853 254.739 20.568 254.739 19.416C254.739 18.264 254.398 17.368 253.715 16.728C253.033 16.0667 251.998 15.736 250.611 15.736H246.579V23.192Z" fill="#020202"/>
</svg>
