<svg width="141" height="145" viewBox="0 0 141 145" fill="none" xmlns="http://www.w3.org/2000/svg">
<rect x="116.036" y="5.18799" width="35" height="62.2367" rx="5" transform="rotate(45.3698 116.036 5.18799)" fill="#5880F2"/>
<rect x="117.192" y="14.188" width="21.3666" height="7.29591" rx="1" transform="rotate(45.3698 117.192 14.188)" fill="#F7F7F7"/>
<path d="M47.0414 73.1696L71.6299 98.0775L36.7837 132.477L12.4529 132.222L12.1952 107.569L47.0414 73.1696Z" fill="#5880F2"/>
<rect width="26.2091" height="94.8546" rx="5" transform="matrix(0.706986 -0.707227 0.695017 0.718994 4.81812 22.0466)" fill="#7A3A0E"/>
<rect width="25.3662" height="22.4597" rx="2" transform="matrix(0.706986 -0.707227 0.695017 0.718994 76.2704 94.719)" fill="#7A3A0E"/>
<path d="M129.616 115.32C130.064 126.376 149.168 133.495 130.164 128.846C109.599 137.266 91.2317 122.53 90.7837 111.475C90.3357 100.419 98.6163 91.1066 109.279 90.6746C119.941 90.2425 134.851 102.644 129.616 115.32Z" fill="#7A3A0E"/>
<path d="M126.5 120.688C125.7 119.888 125.5 111.688 125.5 107.688C114 107.688 113.5 123.688 114.5 124.688C115.3 125.488 120 122.855 121 121.688L124.5 124.688L128.5 125.688C129.166 124.688 127.3 121.488 126.5 120.688Z" fill="white"/>
</svg>
