<svg width="257" height="241" viewBox="0 0 257 241" fill="none" xmlns="http://www.w3.org/2000/svg">
<path d="M-6.10352e-05 136.53C-6.10352e-05 187.421 52.5804 228.675 117.442 228.675C182.303 228.675 234.883 187.421 234.883 136.53C234.883 85.6401 217.341 36.2258 152.479 36.2258C53.2056 111.556 -6.10352e-05 85.6401 -6.10352e-05 136.53Z" fill="#E2F7FE"/>
<path d="M17.1424 81.5143C22.3593 92.6006 45.5766 84.4895 73.4686 70.9156C101.361 57.3416 119.742 37.3506 114.526 26.2644C109.309 15.1781 76.0895 12.6905 48.1974 26.2644C20.3054 39.8383 11.9255 70.428 17.1424 81.5143Z" fill="#E2F7FE"/>
<path d="M187.61 226.258C185.325 221.672 196.755 214.431 211.927 206.61C227.1 198.79 241.252 196.167 243.538 200.753C245.824 205.339 234.768 218.93 219.596 226.75C204.424 234.571 189.896 230.844 187.61 226.258Z" fill="#E2F7FE"/>
<path d="M231.244 177.355C230.172 176.052 231.046 170.899 235.357 167.233C239.668 163.567 241.011 166.7 242.083 168.003C243.154 169.306 245.185 171.882 240.874 175.548C236.563 179.214 232.315 178.658 231.244 177.355Z" fill="#E2F7FE"/>
<path d="M36.415 221.697C37.0621 218.178 46.3943 219.101 58.0357 221.315C69.6771 223.528 78.5898 228.176 77.9428 231.694C77.2958 235.213 65.5261 237.961 53.8847 235.747C42.2433 233.533 35.768 225.216 36.415 221.697Z" fill="#E2F7FE"/>
<path d="M194.252 91.9958C195.142 92.9014 197.962 90.4864 199.261 89.1656L198.704 82.3733C196.478 82.9393 191.914 84.2978 191.469 85.2034C190.912 86.3355 193.139 90.8637 194.252 91.9958Z" fill="#F6AD8C"/>
<path d="M192.026 86.3354C189.769 86.5904 187.016 81.9959 185.903 79.5431C182.007 77.845 182.007 77.279 182.007 75.5809C182.007 74.2225 184.233 73.8828 184.79 74.4489C185.161 72.7508 186.237 69.3546 187.573 69.3546C189.243 69.3546 194.809 68.7886 195.922 69.3546C197.035 69.9206 198.268 73.9475 199.818 73.3168C202.601 72.1847 202.601 75.3923 201.488 76.1469C200.931 76.5243 199.261 78.8639 199.261 80.6752C199.261 83.5053 197.035 85.7694 192.026 86.3354Z" fill="#F6AD8C"/>
<rect x="-0.00582665" y="0.712998" width="5.59477" height="10.2714" transform="matrix(0.695291 0.718728 -0.706945 0.707269 160.605 43.231)" fill="black" stroke="black"/>
<path d="M240.449 59.1661C239.893 59.7322 219.299 77.8451 216.516 80.1092C216.145 81.9959 215.737 85.7694 217.072 85.7694C218.742 85.7694 243.789 59.7321 244.902 59.7321C245.793 59.7321 248.613 57.468 249.911 56.336L246.572 55.7699L249.355 52.9398L246.015 54.0719L247.685 50.1097L244.346 53.5058C244.902 52.1851 246.015 49.4304 246.015 48.9776C246.015 48.5248 243.418 51.8078 242.119 53.5058C241.934 52.7511 241.34 51.2417 240.449 51.2417C239.336 51.2417 241.006 58.6001 240.449 59.1661Z" fill="#F6AD8C"/>
<path d="M163.639 56.902C163.639 57.468 179.78 82.9393 180.337 82.9393C180.151 85.3921 179.446 90.2977 178.111 90.2977C176.441 90.2977 167.535 76.147 166.422 75.5809C165.309 75.0149 161.413 59.7321 159.743 58.6001C158.407 57.6944 158.444 56.7133 158.63 56.336C158.444 55.5813 157.962 53.9587 157.517 53.5058C157.071 53.053 156.96 51.053 156.96 50.1097L159.743 51.8077C160.671 51.053 162.749 49.77 163.639 50.6757C164.752 51.8077 163.639 56.336 163.639 56.902Z" fill="#F6AD8C"/>
<path d="M164.196 205.201C165.086 204.749 164.752 202.56 164.196 201.805C158.073 202.937 145.16 205.767 144.715 205.767C144.158 205.767 142 206.934 142 207.5C142 208.066 146 208.598 147.498 208.598C150.338 208.598 163.083 205.767 164.196 205.201Z" fill="black"/>
<path d="M190.356 134.448V123.693L212.62 123.127V134.448H190.356Z" fill="#F6AD8C"/>
<path d="M233.77 205.201C233.325 204.749 234.698 203.503 235.44 202.937C241.191 204.258 253.028 207.013 254.364 207.465C255.7 207.918 256.405 209.541 256.59 210.296C257.147 210.862 256.813 211.881 251.025 211.428C243.789 210.862 234.327 205.767 233.77 205.201Z" fill="black"/>
<path d="M243.789 201.805L237.666 189.353C236.553 189.541 234.215 190.145 233.77 191.051C233.214 192.183 237.11 201.239 238.223 202.371C239.113 203.277 242.305 202.371 243.789 201.805Z" fill="#F6AD8C"/>
<path d="M156.403 198.975L163.639 187.089C164.752 187.655 167.09 189.126 167.535 190.485C168.092 192.183 160.299 201.239 159.186 201.239C158.296 201.239 156.96 199.73 156.403 198.975Z" fill="#F6AD8C"/>
<path d="M157.517 198.409C158.407 199.315 161.598 198.409 163.083 197.843C163.083 198.22 163.832 199.09 164.196 200.673C164.5 202 164.67 203.575 163 204.5C156.878 207.33 143.113 208.698 142 207C140.887 205.302 156.403 197.277 157.517 198.409Z" fill="#D16729"/>
<path d="M242.676 198.975C242.23 200.333 238.408 199.541 236.553 198.975C235.662 198.733 234.698 201.516 234.327 202.937C234.327 203.692 236.219 205.767 243.789 208.031C253.251 210.862 255.477 210.296 256.034 209.164C256.59 208.031 243.232 197.277 242.676 198.975Z" fill="#D16729"/>
<path d="M160.856 188.221C159.966 186.862 179.78 148.033 189.799 128.788C196.924 132.41 208.352 131.052 213.176 129.92C212.063 132.75 233.77 178.032 235.44 180.862C237.11 183.692 238.78 189.919 238.223 192.183C237.666 194.447 232.1 193.315 230.987 192.183C229.874 191.051 218.186 171.24 217.072 169.542C215.959 167.844 214.289 164.447 211.506 160.485C208.723 156.523 201.488 152.561 198.705 153.127C195.922 153.693 185.346 165.579 184.233 167.278C183.12 168.976 179.224 179.164 176.998 181.994C174.771 184.824 169.762 192.749 167.535 192.183C165.309 191.617 161.969 189.919 160.856 188.221Z" fill="#67A7FE"/>
<path d="M213.733 79.5431C208.524 80.4259 199.261 84.0713 198.705 84.6374V88.0335C197.962 88.7882 196.144 90.2977 194.808 90.2977C193.473 90.2977 192.025 87.6562 191.469 86.3355L184.233 85.7694L179.224 79.5431C176.441 84.6374 175.884 90.2977 176.441 91.4297C176.997 92.5618 182.007 94.8259 182.563 98.2221C183.12 101.618 183.677 102.184 183.677 103.882C183.677 105.58 186.46 106.712 187.016 108.411C187.573 110.109 187.573 111.241 187.016 112.939C186.46 114.637 188.686 116.901 189.242 118.599C189.799 120.297 186.46 126.523 186.46 127.656C186.46 128.788 190.912 127.656 193.695 127.089C196.478 126.523 196.478 125.957 198.148 127.089C199.818 128.222 203.714 128.222 206.497 128.222C209.28 128.222 215.402 127.089 217.629 127.089C219.855 127.089 219.299 125.391 218.742 123.693C218.185 121.995 217.072 117.467 216.516 115.203C215.959 112.939 213.733 110.109 214.289 109.543C214.846 108.977 213.733 103.316 213.176 102.184C212.62 101.052 211.506 96.524 211.506 94.8259C211.506 93.4674 212.991 91.9957 213.733 91.4297L218 87.4675L218 82.9999V78.9999C218 77.4999 217.072 78.9771 213.733 79.5431Z" fill="#FFB349"/>
<path d="M199.261 68.7886C200.152 69.6942 199.261 74.0715 198.705 76.1469C197.962 74.6375 196.256 71.6187 195.365 71.6187C194.474 71.6187 189.428 72.3734 187.016 72.7508L184.79 76.7129L184.233 71.6187L180.894 69.3546L183.677 68.7886L181.45 66.5244H185.903L184.79 64.2603L188.129 65.3924L187.016 63.1283L192.025 64.8264L190.356 61.9962C192.953 63.883 198.371 67.8829 199.261 68.7886Z" fill="black"/>
<ellipse cx="160.299" cy="46.7135" rx="1.11319" ry="1.13206" fill="#696969"/>
<path d="M107.232 154.825V145.768L87.7511 153.693L107.232 154.825Z" fill="#F6AD8C"/>
<path d="M80.5153 170.108C80.5153 171.013 76.4336 170.485 74.3927 170.108C75.1348 172.372 76.8417 177.353 77.7323 179.164C78.8455 181.428 87.751 187.088 89.4208 187.088C91.0906 187.088 87.751 178.032 87.1944 176.334C86.6378 174.636 80.5153 168.976 80.5153 170.108Z" fill="#E2BF4B"/>
<path d="M110.015 99.3541C107.232 99.7315 101.443 100.486 100.553 100.486C99.2541 101.807 97.4359 104.901 100.553 106.712C104.449 108.977 115.581 103.882 117.251 103.316C118.92 102.75 124.486 88.0336 125.6 87.4675C126.713 86.9015 127.269 85.7694 128.939 83.5053C130.609 81.2412 128.383 75.5809 127.269 75.5809C126.379 75.5809 125.043 77.8451 124.486 78.9771C124.115 77.8451 123.262 75.8074 122.817 76.713C122.26 77.8451 122.26 83.5053 121.703 84.6374C121.258 85.5431 113.726 94.8259 110.015 99.3541Z" fill="#F6AD8C"/>
<path d="M54.3553 131.052C55.2459 131.052 61.0345 123.505 63.8175 119.731C66.2294 120.297 70.9418 121.656 70.4966 122.561C69.94 123.693 59.3646 138.41 58.2515 138.976C57.1383 139.542 40.4404 142.372 38.7706 142.372C37.1008 142.372 34.8745 143.504 33.7612 143.504C32.648 143.504 28.7519 145.768 28.1953 145.202C27.75 144.75 29.494 143.127 30.4217 142.372C28.0098 142.75 23.0747 143.504 22.6294 143.504C22.0728 143.504 22.0728 141.806 23.186 141.806C24.2992 141.806 34.3179 138.976 34.8745 138.976C35.4311 138.976 53.2422 131.052 54.3553 131.052Z" fill="#F6AD8C"/>
<path d="M67.3481 167.843C68.4461 167.657 68.4612 168.409 67.7136 168.975C62.3332 171.806 54.1808 180.296 50.6501 178.032C49.9843 177.605 64.0085 168.409 67.3481 167.843Z" fill="black"/>
<path d="M59.5557 162.183C59.1104 162.636 59.7357 163.127 60.4779 163.315C66.0438 162.938 78.1205 162.615 78.2889 161.617C78.4799 160.485 77.9233 160.485 76.2536 160.485C74.4935 160.485 72.914 160.485 67.3481 159.919C61.7821 159.353 60.1123 161.617 59.5557 162.183Z" fill="black"/>
<path d="M66.6005 174.07C66.6005 174.975 69.1979 177.466 70.4966 178.598C71.4243 177.843 73.1683 176.221 72.723 175.768C72.1664 175.202 70.4966 172.938 69.94 172.372C69.3834 171.806 66.6005 172.938 66.6005 174.07Z" fill="#F6AD8C"/>
<path d="M73.2796 166.711C73.2796 167.164 75.506 169.919 76.6192 171.24C77.9179 171.617 80.5154 172.145 80.5154 171.24C80.5154 170.108 76.0626 164.447 75.506 163.881C74.9494 163.315 73.2796 166.145 73.2796 166.711Z" fill="#F6AD8C"/>
<path d="M107.662 153.285C106.509 152.719 81.1302 153.852 80.5534 153.852C78.2463 157.932 85.3599 177.083 89.2051 186.149C88.2438 185.393 86.2059 183.769 85.7445 183.316C85.1677 182.749 73.0553 174.817 72.4785 175.383C72.0171 175.837 69.9791 178.216 69.0178 179.349C69.4023 181.994 73.1706 189.208 85.1677 196.914C100.164 206.547 104.201 202.014 106.509 200.881C108.354 199.974 107.278 193.704 106.509 190.682C107.278 178.405 108.585 153.739 107.662 153.285Z" fill="#EED15B"/>
<path d="M107.98 158.787L102.223 161.617C102.408 171.051 103.113 190.032 104.449 190.485C106.119 191.051 107.232 189.353 108.902 187.089C110.238 185.277 109.093 167.466 107.98 158.787Z" fill="#E2BF4B"/>
<path d="M78.8456 165.579L78.289 161.051C74.3928 160.863 66.4892 160.485 66.0439 160.485C65.4873 160.485 58.2516 162.183 59.3648 163.881C60.478 165.579 69.3835 165.579 69.9401 166.146C70.3854 166.598 72.7231 167.466 73.8363 167.844C74.0218 167.278 74.5042 165.919 74.9494 165.013C75.3947 164.108 77.7324 165.013 78.8456 165.579Z" fill="#5248BC"/>
<path d="M68.2703 168.41C69.1608 168.862 69.7545 171.617 69.94 172.938C68.6042 172.032 67.5281 175.202 67.1571 176.9C65.4873 176.711 61.5911 176.674 59.3647 178.032C56.5817 179.73 51.5724 179.73 51.5724 178.032C51.5724 176.334 67.1571 167.844 68.2703 168.41Z" fill="#5248BC"/>
<path d="M70.6876 104.448C69.0178 103.882 62.1476 119.165 61.591 119.731C59.9004 123.354 65.3394 125.014 68.2702 125.391L73.2795 124.259C73.6506 125.769 74.3927 129.127 74.3927 130.486C74.3927 132.184 77.1757 133.882 77.7323 136.146C78.2889 138.41 77.7323 139.542 77.1757 141.24C76.6191 142.938 78.2889 142.938 78.8455 144.07C79.4021 145.202 79.4021 149.165 78.8455 151.995C78.2889 154.825 83.2983 155.391 84.968 156.523C86.6378 157.655 95.5434 152.561 97.2131 153.127C98.8829 153.693 111.685 145.768 111.685 142.938C111.685 140.674 107.603 134.07 105.562 131.052C107.343 128.788 102.594 115.392 99.9961 108.977H101.666C101.851 106.712 102.111 101.731 101.666 99.9201C101.109 97.656 84.968 97.09 83.8548 98.222C82.9643 99.1277 85.7102 100.863 87.1944 101.618C86.0812 102.75 83.5209 106.033 82.1851 105.58C78.8455 104.448 72.3574 105.014 70.6876 104.448Z" fill="#67A7FE"/>
<path d="M79.4022 105.014L76.0626 107.278C71.2388 105.769 61.9251 100.373 63.2609 90.8636C65.4873 89.1656 70.274 85.7694 71.6098 85.7694C72.9457 85.7694 74.7639 88.0335 75.506 89.1655C76.4337 88.2222 78.8456 86.675 81.072 88.0335C83.2983 89.392 81.6286 93.1277 80.5154 94.8258L87.7511 102.184L82.7418 107.278L79.4022 105.014Z" fill="#F6AD8C"/>
<path d="M73.2796 86.9015C72.8343 87.3543 66.4149 90.4863 63.2608 91.9957H62.1477C60.4779 90.2977 65.4872 80.1091 65.4872 79.5431C65.4872 78.9771 66.0438 77.845 66.0438 75.5809C66.0438 73.3168 70.4966 69.9206 72.723 69.9206C74.9494 69.9206 77.7323 68.2225 78.2889 65.9584C78.7342 64.1471 81.443 62.1849 82.7417 61.4302C83.2983 61.9962 84.6341 63.1283 85.5247 63.1283C86.6379 63.1283 86.0813 75.0149 86.6379 75.5809C87.1945 76.1469 90.534 82.9392 89.9774 86.9014C89.5322 90.0712 83.8549 93.1278 81.0719 94.2598C81.9625 85.6562 77.7323 88.4109 75.506 90.8637C74.9494 89.3543 73.7248 86.4487 73.2796 86.9015Z" fill="black"/>
</svg>
