<svg width="215" height="177" viewBox="0 0 215 177" fill="none" xmlns="http://www.w3.org/2000/svg">
<path d="M215 90.0535C215 127.885 174.482 158.554 124.5 158.554C74.5182 158.554 34 127.885 34 90.0535C34 52.222 47.5182 15.4878 97.5 15.4878C174 71.4878 215 52.222 215 90.0535Z" fill="#E2F7FE"/>
<rect x="60" y="92" width="5" height="23" rx="2" fill="#636363"/>
<rect x="15" y="111" width="50" height="4" rx="2" fill="#636363"/>
<rect x="46.9734" y="114.163" width="3" height="10.4283" transform="rotate(-45.9478 46.9734 114.163)" fill="#636363"/>
<circle cx="176.5" cy="156.5" r="20.5" fill="#636363"/>
<circle cx="176" cy="155" r="14" fill="white"/>
<circle cx="69.5" cy="156.5" r="20.5" fill="#636363"/>
<circle cx="69" cy="155" r="14" fill="white"/>
<ellipse cx="166.192" cy="113.14" rx="5" ry="8" transform="rotate(-17.669 166.192 113.14)" fill="#FCD034"/>
<path d="M201.5 152C186 152 187.822 152 176.5 152C153.5 152 156 154.165 156 144.5C156 134.835 165.178 127 176.5 127C187.822 127 201.5 142.335 201.5 152Z" fill="#DB8E36"/>
<ellipse cx="146.5" cy="63" rx="2.5" ry="8" fill="#B76D24"/>
<path d="M39.8896 124.081C41.5008 117.921 49.9597 118.627 53.9878 119.75C54.3906 120.905 44.7568 133.065 39.8896 139C39.2183 136.594 38.2784 130.241 39.8896 124.081Z" fill="#DB8E36"/>
<path d="M169 141.5C179.8 130.3 162.167 102.167 152 89.5C152 87.1 148.333 87.8333 146.5 88.5C149 94.5 154.4 108.1 156 114.5C158 122.5 155 141.5 146.5 145.5C138 149.5 109 147.5 107.5 147C106 146.5 104.5 137.5 105 129C105.5 120.5 113 119 115.5 118C117.5 117.2 116.333 113 115.5 111C108.5 110.667 89 110.4 67 112C45 113.6 37.8333 139.333 37 152L91.5 150.5L90.5 159.5C94.1667 160 106 160.9 124 160.5C146.5 160 155.5 155.5 169 141.5Z" fill="#FFB349"/>
<rect x="72" y="98" width="45" height="13" rx="3" fill="#B76D24"/>
<path d="M161 137C167.4 128.2 155.667 100.333 149 87.5H141.5C145.5 95.1667 153.3 114 152.5 128C151.5 145.5 137 151 130 153C123 155 89.5 150 86 156C82.5 162 118 160.5 128 160.5C138 160.5 153 148 161 137Z" fill="#DB8E36"/>
<circle cx="147.5" cy="78.5" r="11.5" fill="#FFB349"/>
<rect x="147" y="67" width="14" height="23" fill="#FFB349"/>
<rect x="159" y="67" width="7" height="23" fill="#B76D24"/>
<rect x="128" y="81.9868" width="21" height="6.89132" rx="3.44566" transform="rotate(-31.5458 128 81.9868)" fill="#636363"/>
<path d="M77.5 121.5C58.3 119.9 46.5 144.833 43 157.5L86.5 157C108.5 147 101.5 123.5 77.5 121.5Z" fill="#FFE9B7"/>
<ellipse cx="153.5" cy="63" rx="2.5" ry="8" fill="#B76D24"/>
<rect x="13" y="108.914" width="47" height="3.08571" fill="#E67F24"/>
<rect x="20" y="76" width="40" height="33.9429" fill="#FFBE65"/>
<path d="M13 78.0571L20 76V109.943H13V78.0571Z" fill="#EC9E41"/>
<rect x="46.9108" y="83.6948" width="5.10081" height="9.07021" rx="2.5504" transform="rotate(45.3698 46.9108 83.6948)" fill="#5880F2"/>
<rect x="47.0792" y="85.0064" width="3.11391" height="1.06329" rx="0.531643" transform="rotate(45.3698 47.0792 85.0064)" fill="#F7F7F7"/>
<path d="M36.8557 93.6022L40.4391 97.2322L35.3608 102.245L31.8149 102.208L31.7773 98.6155L36.8557 93.6022Z" fill="#5880F2"/>
<rect width="3.81965" height="13.8239" rx="1.90982" transform="matrix(0.706986 -0.707227 0.695017 0.718994 30.7022 86.1517)" fill="#7A3A0E"/>
<rect width="3.6968" height="3.27322" rx="1.63661" transform="matrix(0.706986 -0.707227 0.695017 0.718994 41.1154 96.7428)" fill="#7A3A0E"/>
<path d="M48.8899 99.7451C48.9552 101.356 51.7393 102.394 48.9698 101.716C45.9727 102.943 43.2959 100.796 43.2306 99.1847C43.1653 97.5735 44.3721 96.2163 45.9261 96.1533C47.48 96.0904 49.6529 97.8978 48.8899 99.7451Z" fill="#7A3A0E"/>
<path d="M48.4357 100.527C48.3191 100.411 48.29 99.2158 48.29 98.6328C46.614 98.6328 46.5412 100.965 46.6869 101.11C46.8035 101.227 47.4885 100.843 47.6342 100.673L48.1443 101.11L48.7272 101.256C48.8243 101.11 48.5523 100.644 48.4357 100.527Z" fill="white"/>
<path d="M1 84.6406C3 87.6406 9.4 92.3406 19 87.1406C31 80.6406 34 77.6406 38.5 77.6406C43 77.6406 37 66.6406 34.5 68.1406C32 69.6406 28 73 39.5 76.5" stroke="#FF3D3D" stroke-linecap="round"/>
<path d="M40 76.5C40.3333 73.6666 41.7 68.6204 44.5 69.0204C48 69.5204 50.5 71.5 47 74.5C43.5 77.5 37 77 27 74C17 71 11 74.0204 10 76.0204" stroke="#FF3D3D" stroke-linecap="round"/>
<path d="M54 76V115" stroke="#FF3D3D" stroke-linecap="round"/>
<path d="M27 76V115" stroke="#FF3D3D" stroke-linecap="round"/>
<path d="M126.137 144.728C126.657 144.471 125.92 142.691 125.486 141.833C124.943 141.726 123.598 141.511 122.557 141.511C121.255 141.511 122.557 143.763 123.208 144.728C123.859 145.693 125.486 145.05 126.137 144.728Z" fill="#F8D5B3"/>
<path d="M107.59 30.5984C106.809 29.8264 105.312 25.5588 104.661 23.5215C102.058 23.5215 96.5252 23.6502 95.2235 24.1648C93.5963 24.8082 88.3894 39.2837 88.7148 39.9271C88.9752 40.4418 94.2472 41.8572 96.8507 42.5005C97.1761 41.9644 97.9571 40.6991 98.4778 39.9271C99.1287 38.9621 103.685 40.2488 105.312 39.9271C106.614 39.6697 106.288 35.5308 105.963 33.4935C106.831 32.8502 108.371 31.3704 107.59 30.5984Z" fill="#F9C9B3"/>
<path d="M127 139.58C128.125 135.757 132.264 97.8936 125.615 100.615C123.129 112.965 119.309 139.814 119.95 141.344C120.752 143.258 125.933 143.206 127 139.58Z" fill="#75503D"/>
<path d="M114.048 144.717C113.949 143.692 114.879 139.791 117.023 138.296C118.935 137.792 122.983 137.732 122.33 139.086C121.513 140.779 125.851 148.448 124.231 148.601C122.612 148.754 114.172 145.998 114.048 144.717Z" fill="#F9C9B3"/>
<path d="M131.457 145.574C131.137 145.633 127.023 143.117 125.944 142.661C124.865 142.204 124.582 144.22 124.321 144.595C125.578 146 128.792 149.008 131.59 149.803C135.086 150.797 136.307 150.246 137.989 148.628C139.869 146.819 131.777 145.516 131.457 145.574Z" fill="#482D24"/>
<path d="M112.631 150.344C110.175 149.284 112.428 144.87 113.862 142.795C115.961 144.213 121.361 145.964 121.33 145.644C121.299 145.324 123.026 142.898 124.321 142.776C125.617 142.653 127.964 146.632 129.26 146.51C130.556 146.387 133.919 147.362 135.015 148.551C136.111 149.74 134.058 150.108 132.5 150.902C130.942 151.695 115.701 151.67 112.631 150.344Z" fill="#5C3C2F"/>
<path d="M128.092 98.1509C126.425 94.8553 110.302 90.7523 102.058 89.7872C90.0165 87.2138 74.5 94.5749 77.5 101C81 108.496 115.4 105.549 115.726 106.515C116.051 107.48 114.825 135.973 114.5 138.546C114.175 141.119 121.047 142.5 123 142.5C124.953 142.5 130.696 103.298 128.092 98.1509Z" fill="#996F57"/>
<path d="M144.5 73C143.512 69.5408 134.689 69.7666 130.749 70.2403C130.032 69.885 129.674 76.6344 130.39 77.7C130.964 78.5526 134.45 77.5816 136.121 76.9896C136.838 76.6344 138.213 76.0684 138.5 75.5C138.858 74.7896 139.925 76 141 76C142.075 76 142.211 77.2239 141.136 77.9343C140.061 78.6448 141.977 80.0129 144.001 79C146 78 145.5 76.5 144.5 73Z" fill="#F9C9B3"/>
<path d="M104.336 70.1649C104.336 54.4026 98.1524 43.4656 97.8269 43.4656C96.6337 42.8222 92.4898 41.5355 85.4605 41.5355C76.6737 41.5355 78.9518 68.8782 78.9518 70.8082C78.9518 72.7383 75.6974 96.8642 76.0229 98.1509C76.3483 99.4376 82.857 98.4726 85.4605 99.1159C88.0639 99.7593 101.732 96.5425 104.986 94.9341C108.241 93.3257 104.336 85.9271 104.336 70.1649Z" fill="#F9F3F3"/>
<path d="M85.4604 58.9061C85.4604 58.2627 92.2946 61.1578 92.9454 61.1578C104.77 65.983 128.483 75.8907 128.743 76.9201C129.069 78.2068 128.092 79.1719 126.791 79.4935C125.489 79.8152 85.4604 59.5494 85.4604 58.9061Z" fill="#D7C3C3"/>
<path d="M132.964 70.0893C133.521 69.2435 109.093 55.8755 96.8099 49.2972C95.4193 48.5514 87.076 58.1074 87.4236 59.1647C87.7713 60.2219 128.793 77.8423 130.183 78.1947C131.574 78.5471 132.269 71.1465 132.964 70.0893Z" fill="#F9F3F3"/>
<path d="M97.8269 41.2138C97.3063 41.4712 91.1013 38.7476 88.0639 37.3537C87.0876 37.997 85.2001 39.6698 85.4605 41.2138C85.7208 42.7579 94.2472 44.0017 98.4778 44.4306C98.4778 43.2511 98.3476 40.9565 97.8269 41.2138Z" fill="#F6EDED"/>
<path d="M92.2946 33.1719C92.5549 31.6278 91.1013 30.5984 90.342 30.2767C89.9081 30.0623 88.9101 29.9551 88.3894 31.2418C87.8687 32.5285 88.8233 36.067 89.3657 37.6754C90.2335 36.8175 92.0342 34.7159 92.2946 33.1719Z" fill="#9B5454"/>
<path d="M84.1587 28.025C82.857 17.4096 88.6658 15.1084 95.4999 13.5C100.967 12.2133 105.529 18.3746 106.939 21.2697C105.117 20.4977 101.407 21.377 99.7795 21.9131C95.5489 20.6264 90.9928 23.1998 90.342 24.1649C89.6911 25.1299 88.7148 28.025 86.4368 28.6684C84.6143 29.183 84.1587 28.4539 84.1587 28.025Z" fill="#FFB349"/>
<path d="M109.868 23.5215C109.347 24.0362 103.359 24.3793 100.43 24.4865C98.608 24.5696 99.2372 30.5258 99.7795 33.4935C100.539 35.2091 101.992 38.8334 101.732 39.6054C101.472 40.3774 99.6711 40.356 98.8032 40.2488L96.5252 34.4586C94.6811 32.9574 90.8627 30.3411 90.342 31.8851C89.8213 33.4292 88.8233 33.6007 88.3894 33.4935C85.0049 33.4935 84.1587 30.4912 84.1587 28.99C86.7622 18.0529 103.685 20.6264 105.637 20.6264C107.59 20.6264 110.519 22.8781 109.868 23.5215Z" fill="#1E3C47"/>
<path d="M200.5 47.9878C196.67 55.9902 182.543 55.9469 162.069 46.1488C141.594 36.3508 128.101 21.9207 131.93 13.9183C135.76 5.91589 151.525 6.18974 172 15.9878C192.475 25.7858 204.33 39.9854 200.5 47.9878Z" fill="#E2F7FE"/>
</svg>
